PathFileType	4	(X/Y/Z)	pose_F01_0-97.trc
DataRate	CameraRate	NumFrames	NumMarkers	Units	OrigDataRate	OrigDataStartFrame	OrigNumFrames
30	30	5	21	m	30	36	97
Frame#	Time	CHip			RHip			RKnee			RAnkle			RBigToe			RSmallToe			RHeel			LHip			LKnee			LAnkle			LBigToe			LSmallToe			LHeel			Neck			Nose			RShoulder			RElbow			RWrist			LShoulder			LElbow			LWrist			
		X1	Y1	Z1	X2	Y2	Z2	X3	Y3	Z3	X4	Y4	Z4	X5	Y5	Z5	X6	Y6	Z6	X7	Y7	Z7	X8	Y8	Z8	X9	Y9	Z9	X10	Y10	Z10	X11	Y11	Z11	X12	Y12	Z12	X13	Y13	Z13	X14	Y14	Z14	X15	Y15	Z15	X16	Y16	Z16	X17	Y17	Z17	X18	Y18	Z18	X19	Y19	Z19	X20	Y20	Z20	X21	Y21	Z21	
36	1.2	-0.331808105269906	1.8276510977740068	-0.7441966928693493	-0.35003264774071463	1.8229928865133187	-0.6812129761516151	-0.3158657934465338	1.6980611140855355	-0.6094479477481057	-0.30525031680934556	1.551749829350518	-0.537868994049019	-0.26950030092080607	1.5293995748363411	-0.5021072784639228	-0.31686911789675953	1.542093134580541	-0.5299644802171719	-0.31136186465212123	1.5348821776823682	-0.5389025272571032	-0.8481392534656804	1.7591532214213674	-0.31657377175510526	-0.29665185548166045	1.7002581255481188	-0.700598870431157				-0.3909502825762424	1.5406302499785298	-0.9248932397737553				-0.43040072164415877	1.5675538344193385	-0.8780382375899174	-0.32048413030776574	1.971767342536724	-0.7005891376978906	-0.9642638643193466	1.9405890716158198	0.04554662080282612	-1.2912531345471867	1.8705622736681042	0.3484007762948269	-0.32019282510160224	1.8954756697774073	-0.6442515406485676	-0.8932979209649069	1.8495463531251315	-0.3468935929728463	-0.3051744200898325	1.9781849195556944	-0.7835478552912718	-0.8031214292385932	1.8158539027667975	-0.3747932920835087	-0.7954326493793099	1.7448502774278873	-0.3582256769254937
37	1.2333333333333334	-0.3316391424364066	1.828339718977299	-0.7442306670842527	-0.34709003399127986	1.8212621480773326	-0.686456499750674	-0.3158657934465338	1.6980611140855355	-0.6094479477481057	-0.30525031680934556	1.551749829350518	-0.537868994049019	-0.26950030092080607	1.5293995748363411	-0.5021072784639228	-0.31686911789675953	1.542093134580541	-0.5299644802171719	-0.31136186465212123	1.5348821776823682	-0.5389025272571032	-0.8340983888564293	1.7574890595123753	-0.32993293277452745	-0.29665185548166045	1.7002581255481188	-0.700598870431157				-0.3909502825762424	1.5406302499785298	-0.9248932397737553				-0.43040072164415877	1.5675538344193385	-0.8780382375899174	-0.3146858205776102	1.9695980486519322	-0.7095464047497811	-1.310586890829415	1.902460984649925	0.4001299551498494	-1.2819065355133987	1.870459233005032	0.33371977885316867	-0.3203371191402813	1.8921072677604838	-0.6475723732140288	-0.805222084668098	1.8453521839613933	-0.5003734592468718	-0.3014856230104427	1.9760888241996197	-0.7903784075404395	-0.800699952332154	1.8119710183374602	-0.37316951730485104	-0.7885724489609576	1.7444735826862936	-0.36496739007395396
38	1.2666666666666666	-0.3314490263836171	1.8251352801509824	-0.7520430428584253	-0.3441474202418451	1.8195314096413462	-0.6917000233497328	-0.3158657934465338	1.6980611140855355	-0.6094479477481057	-0.30525031680934556	1.551749829350518	-0.537868994049019	-0.26950030092080607	1.5293995748363411	-0.5021072784639228	-0.31686911789675953	1.542093134580541	-0.5299644802171719	-0.31136186465212123	1.5348821776823682	-0.5389025272571032	-0.8099419856410742	1.7547657223310316	-0.36426964813277346	-0.29665185548166045	1.7002581255481188	-0.700598870431157				-0.3909502825762424	1.5406302499785298	-0.9248932397737553				-0.43040072164415877	1.5675538344193385	-0.8780382375899174	-1.1194226967894338	1.8781819313061376	0.08630251282767101	-1.2858701849537846	1.9001005390768368	0.3630652426181671	-1.2788849105339684	1.8712489269125547	0.33020335117020444	-0.3204814131789604	1.8887388657435602	-0.6508932057794902	-0.7171462483712892	1.8411580147976554	-0.6538533255208971	-0.2906942691620789	1.9762539599244546	-0.8040050559820257	-0.7996502330626799	1.8109181663988418	-0.3705736886629133	-0.7817122485426053	1.7440968879446999	-0.37170910322241424
39	1.3	-0.3288883511630334	1.8251372217549504	-0.7624516653294144	-0.34120480649241036	1.81780067120536	-0.6969435469487917	-0.3158657934465338	1.6980611140855355	-0.6094479477481057	-0.30525031680934556	1.551749829350518	-0.537868994049019	-0.26950030092080607	1.5293995748363411	-0.5021072784639228	-0.31686911789675953	1.542093134580541	-0.5299644802171719	-0.31136186465212123	1.5348821776823682	-0.5389025272571032	-0.7968753638655449	1.7551420261341093	-0.38045266167559005	-0.29665185548166045	1.7002581255481188	-0.700598870431157				-0.3909502825762424	1.5406302499785298	-0.9248932397737553				-0.43040072164415877	1.5675538344193385	-0.8780382375899174	-1.1058360126092763	1.8793106711046617	0.06755134636913059	-1.285732540209911	1.9000670526500507	0.36292451130517617	-1.2639923879016666	1.872379364966665	0.30948342142370244	-0.3206257072176395	1.8853704637266366	-0.6542140383449515	-0.6290704120744803	1.8369638456339175	-0.8073331917949225	-0.28829057699172267	1.9752920177700801	-0.8060679671454377	-0.7814398745587747	1.8095623682996984	-0.3889494477845964	-0.774852048124253	1.743720193203106	-0.3784508163708746
40	1.3333333333333333	-0.32479504852923063	1.8231618534141134	-0.768319860069935	-0.3382621927429756	1.8160699327693737	-0.7021870705478505	-0.3158657934465338	1.6980611140855355	-0.6094479477481057	-0.30525031680934556	1.551749829350518	-0.537868994049019	-0.26950030092080607	1.5293995748363411	-0.5021072784639228	-0.31686911789675953	1.542093134580541	-0.5299644802171719	-0.31136186465212123	1.5348821776823682	-0.5389025272571032	-0.795707236845511	1.7525598539544294	-0.37951976686462957	-0.29665185548166045	1.7002581255481188	-0.700598870431157				-0.3909502825762424	1.5406302499785298	-0.9248932397737553				-0.43040072164415877	1.5675538344193385	-0.8780382375899174	-1.0998837198505762	1.8757537909592141	0.06105868295398106	-1.2762597297761982	1.9021381094819523	0.3477523619650222	-1.2622686436458626	1.8688759777419777	0.31232261370983094	-0.3207700012563186	1.8820020617097133	-0.6575348709104128	-0.5409945757776714	1.8327696764701793	-0.960813058068948	-0.2825017708118861	1.971147917764152	-0.81547620344361	-0.781323976426968	1.809497331528815	-0.3890519383201293	-0.7679918477059008	1.7433434984615122	-0.38519252951933486
